<?xml version="1.0" encoding="UTF-8"?>
<svg width="28" height="20" viewBox="0 0 28 20" fill="none" xmlns="http://www.w3.org/2000/svg">
  <rect width="28" height="20" fill="white"/>
  <path fill-rule="evenodd" clip-rule="evenodd" d="M0 0H28V1.53846H0V0ZM0 3.07692H28V4.61538H0V3.07692ZM0 6.15385H28V7.69231H0V6.15385ZM0 9.23077H28V10.7692H0V9.23077ZM0 12.3077H28V13.8462H0V12.3077ZM0 15.3846H28V16.9231H0V15.3846ZM0 18.4615H28V20H0V18.4615Z" fill="#D02F44"/>
  <rect width="12" height="9.23077" fill="#46467F"/>
  <g clip-path="url(#clip0_1213_6)">
    <path d="M1.5 1.5L2 2.5L3 2L2.5 1L1.5 1.5Z" fill="white"/>
    <path d="M4.5 1.5L5 2.5L6 2L5.5 1L4.5 1.5Z" fill="white"/>
    <path d="M7.5 1.5L8 2.5L9 2L8.5 1L7.5 1.5Z" fill="white"/>
    <path d="M10.5 1.5L11 2.5L12 2L11.5 1L10.5 1.5Z" fill="white"/>
    <path d="M3 3.5L3.5 4.5L4.5 4L4 3L3 3.5Z" fill="white"/>
    <path d="M6 3.5L6.5 4.5L7.5 4L7 3L6 3.5Z" fill="white"/>
    <path d="M9 3.5L9.5 4.5L10.5 4L10 3L9 3.5Z" fill="white"/>
    <path d="M1.5 5.5L2 6.5L3 6L2.5 5L1.5 5.5Z" fill="white"/>
    <path d="M4.5 5.5L5 6.5L6 6L5.5 5L4.5 5.5Z" fill="white"/>
    <path d="M7.5 5.5L8 6.5L9 6L8.5 5L7.5 5.5Z" fill="white"/>
    <path d="M10.5 5.5L11 6.5L12 6L11.5 5L10.5 5.5Z" fill="white"/>
    <path d="M3 7.5L3.5 8.5L4.5 8L4 7L3 7.5Z" fill="white"/>
    <path d="M6 7.5L6.5 8.5L7.5 8L7 7L6 7.5Z" fill="white"/>
    <path d="M9 7.5L9.5 8.5L10.5 8L10 7L9 7.5Z" fill="white"/>
  </g>
  <defs>
    <clipPath id="clip0_1213_6">
      <rect width="12" height="9.23077" fill="white"/>
    </clipPath>
  </defs>
</svg>