<?xml version="1.0" encoding="UTF-8"?>
<svg width="1920" height="1080" viewBox="0 0 1920 1080" fill="none" xmlns="http://www.w3.org/2000/svg">
  <path fill-rule="evenodd" clip-rule="evenodd" d="M1789.2 208.6C1772.8 197.4 1755.1 189 1736.5 183.7C1682.9 168.5 1625.4 171.8 1573.9 193.1C1522.4 214.4 1477.9 252.6 1446.5 301.8C1415.1 351 1398.5 408.5 1398.5 467.3C1398.5 526.1 1415.1 583.6 1446.5 632.8C1477.9 682 1522.4 720.2 1573.9 741.5C1625.4 762.8 1682.9 766.1 1736.5 750.9C1755.1 745.6 1772.8 737.2 1789.2 726C1805.6 714.8 1820.5 701.3 1833.4 685.8C1846.3 670.3 1857 653 1865.2 634.4C1873.4 615.8 1879 596.1 1881.8 575.9C1884.6 555.7 1884.6 535.1 1881.8 514.9C1879 494.7 1873.4 475 1865.2 456.4C1857 437.8 1846.3 420.5 1833.4 405C1820.5 389.5 1805.6 376 1789.2 364.8C1772.8 353.6 1755.1 345.2 1736.5 339.9C1682.9 324.7 1625.4 328 1573.9 349.3C1522.4 370.6 1477.9 408.8 1446.5 458C1415.1 507.2 1398.5 564.7 1398.5 623.5C1398.5 682.3 1415.1 739.8 1446.5 789C1477.9 838.2 1522.4 876.4 1573.9 897.7C1625.4 919 1682.9 922.3 1736.5 907.1C1755.1 901.8 1772.8 893.4 1789.2 882.2" stroke="#1E40AF" stroke-width="2"/>
  <!-- Add more path elements for other continents/regions -->
</svg>